<?xml version="1.0" encoding="utf-8"?>
<!-- Generator: Adobe Illustrator 16.0.0, SVG Export Plug-In . SVG Version: 6.00 Build 0)  -->
<!DOCTYPE svg PUBLIC "-//W3C//DTD SVG 1.1//EN" "http://www.w3.org/Graphics/SVG/1.1/DTD/svg11.dtd">
<svg version="1.1" id="圖層_1" xmlns="http://www.w3.org/2000/svg" xmlns:xlink="http://www.w3.org/1999/xlink" x="0px" y="0px"
	 width="480px" height="640px" viewBox="0 0 480 640" enable-background="new 0 0 480 640" xml:space="preserve">
<g>
	<path d="M9.25,72.605v-61.86h21.538v12.372H18.656V34.5h11.758v12.372H18.656v13.362h12.773v12.372H9.25z"/>
	<path d="M38.484,53.058V40.686h13.254v12.372H38.484z"/>
	<path d="M77.604,72.688l-0.428-5.526H77.07c-0.962,2.64-2.049,4.454-3.26,5.444c-1.212,0.99-2.833,1.485-4.864,1.485
		c-1.996,0-3.661-0.495-4.997-1.485c-1.336-0.99-2.414-2.378-3.233-4.165c-0.82-1.787-1.408-3.877-1.764-6.269
		c-0.357-2.392-0.535-4.99-0.535-7.794V28.973c0-6.763,1.024-11.739,3.073-14.929c2.048-3.188,5.228-4.784,9.54-4.784
		c4.026,0,7.162,1.402,9.406,4.206c2.245,2.805,3.367,7.369,3.367,13.692v4.619h-9.406v-3.382c0-2.639-0.179-4.619-0.535-5.938
		c-0.356-1.32-1.158-2.007-2.405-2.062c-1.461-0.054-2.432,0.495-2.913,1.649c-0.481,1.155-0.722,2.75-0.722,4.784v30.601
		c0,1.76,0.267,3.121,0.802,4.083c0.534,0.963,1.424,1.443,2.672,1.443c0.784,0,1.398-0.219,1.844-0.66
		c0.445-0.439,0.775-1.031,0.988-1.773c0.214-0.742,0.348-1.594,0.401-2.557c0.054-0.961,0.081-1.938,0.081-2.928v-4.866h-3.367
		V39.036h12.773v33.652H77.604z"/>
	<path d="M89.522,72.605l8.765-61.86h11.33l8.711,61.86h-9.513l-1.336-12.042h-7.375l-1.123,12.042H89.522z M103.953,21.962h-0.107
		l-2.726,27.713h5.451L103.953,21.962z"/>
	<path d="M119.666,10.745h24.371v12.372h-7.589v49.488h-9.406V23.117h-7.375V10.745z"/>
	<path d="M150.343,72.605v-61.86h21.538v12.372h-12.132V34.5h11.758v12.372h-11.758v13.362h12.773v12.372H150.343z"/>
</g>
<g>
	<path d="M13.931,92.967c-0.181,4.487-0.751,8.364-1.712,11.63l-2.902-1.694c0.849-2.732,1.378-6.296,1.587-10.691L13.931,92.967z
		 M23.639,98.484l-2.317,2.862c-0.696-1.282-1.58-2.526-2.651-3.732v26.1h-3.758V82.985h3.758v9.318
		C20.632,94.303,22.289,96.363,23.639,98.484z M46.812,106.704h-13.34c-1.044,6.96-4.753,12.76-11.127,17.399l-2.735-3.342
		c5.692-3.755,8.984-8.44,9.875-14.057h-8.873v-4.075h9.437c0.153-2.167,0.25-5.136,0.292-8.906h-7.766V89.67h7.725
		c0.097-2.396,0.125-4.609,0.083-6.639h3.778c0.042,2.427,0.042,4.64,0,6.639h9.75v12.958h2.902V106.704z M47.188,121.333
		l-3.027,2.816c-2.909-4.105-6.416-7.982-10.521-11.63l2.693-2.862C40.688,113.274,44.307,117.166,47.188,121.333z M40.048,102.628
		v-8.906h-5.846c-0.056,3.938-0.146,6.907-0.271,8.906H40.048z"/>
	<path d="M89.984,119.272l-1.106,4.075c-1.753,0.061-3.807,0.092-6.159,0.092c-3.159,0-6.461-0.05-9.906-0.149
		c-3.445-0.1-6.155-0.519-8.131-1.259c-1.977-0.74-3.758-1.82-5.345-3.24c-1.294,2.167-2.588,4.044-3.883,5.632l-3.048-2.587
		c3.716-4.228,6.082-8.707,7.098-13.439h-6.409v-3.846c2.283-2.564,4.238-5.228,5.867-7.99h-6.514v-3.777h10.918v3.777
		c-1.392,2.488-3.236,5.151-5.532,7.99h5.574v3.938c-0.446,2.305-1.204,4.617-2.276,6.937c2.784,2.747,6.402,4.121,10.856,4.121
		C77.987,119.547,83.986,119.456,89.984,119.272z M62.594,88.686l-2.651,2.999c-1.545-1.969-3.799-3.983-6.764-6.044l2.526-3.045
		C58.252,84.244,60.548,86.274,62.594,88.686z M89.817,113.686l-1.92,3.32c-2.672-2.366-5.567-4.579-8.685-6.639v7.532h-3.716
		v-8.333c-2.839,3.144-5.859,5.754-9.061,7.83l-2.442-3.297c4.426-2.564,7.759-5.372,10-8.425h-7.432V93.906h8.935v-3.091H65.204
		v-3.709h10.292v-3.984h3.716v3.984h10.396v3.709H79.212v3.091h8.977v11.768h-8.977v0.503
		C83.61,108.833,87.146,111.336,89.817,113.686z M75.496,102.056v-4.739h-5.303v4.739H75.496z M84.515,102.056v-4.739h-5.302v4.739
		H84.515z"/>
	<path d="M132.614,119.135l-0.98,4.075c-2.464,0.061-4.774,0.091-6.931,0.091c-8.059,0-13.358-0.305-15.898-0.916
		c-2.54-0.611-4.75-1.916-6.628-3.915c-1.378,2.198-2.776,4.136-4.196,5.815l-2.985-2.541c3.8-4.167,6.166-8.616,7.098-13.348
		h-6.075v-4.006c2.366-3.098,4.176-5.67,5.428-7.715h-6.242v-4.006h10.814v4.006c-1.35,2.305-3.041,4.876-5.073,7.715h5.177v4.006
		c-0.501,2.335-1.246,4.533-2.234,6.594c1.03,1.282,2.373,2.29,4.029,3.022c1.656,0.733,3.737,1.137,6.242,1.213
		c2.505,0.077,5.128,0.115,7.871,0.115C126.011,119.341,129.539,119.272,132.614,119.135z M105.559,88.686l-2.693,2.725
		c-2.241-2.488-4.454-4.487-6.639-5.999l2.526-2.908C101.592,84.564,103.86,86.625,105.559,88.686z M131.341,113.366
		c0,1.282-0.421,2.248-1.263,2.896c-0.842,0.649-2.516,0.912-5.021,0.79l-1.106-3.823c0.696,0.031,1.35,0.045,1.962,0.045
		c1.142,0,1.712-0.351,1.712-1.053v-2.015h-5.866v6.708h-3.674v-6.708h-5.866v6.799h-3.674V92.967h8.392
		c-1.461-0.809-3.271-1.625-5.428-2.45l2.86-2.381c1.795,0.702,3.333,1.389,4.614,2.061c1.726-0.87,3.347-1.793,4.864-2.771h-15.887
		v-3.8h22.484v3.8c-2.839,1.984-5.435,3.671-7.787,5.06l0.564,0.481h8.121V113.366z M118.084,99.95v-3.48h-5.866v3.48H118.084z
		 M118.084,106.749v-3.388h-5.866v3.388H118.084z M127.625,99.95v-3.48h-5.866v3.48H127.625z M127.625,106.749v-3.388h-5.866v3.388
		H127.625z"/>
	<path d="M155.204,95.966H142.97v27.84h-3.8v-40.18h16.034V95.966z M151.425,88.548v-1.786h-8.455v1.786H151.425z M151.425,92.921
		v-1.786h-8.455v1.786H151.425z M156.144,108.535l-2.276,1.351c-0.194-0.351-0.383-0.664-0.563-0.938
		c-3.09,0.503-5.769,0.832-8.037,0.984l-0.668-2.427c1.6-0.885,3.18-2.076,4.738-3.572c-1.572,0.245-2.895,0.397-3.966,0.458
		l-0.689-2.427c2.018-1.099,3.653-2.847,4.906-5.243l2.734,1.122c-0.988,1.404-2.157,2.656-3.507,3.755
		c1.267-0.122,2.269-0.282,3.006-0.481c0.487-0.595,0.939-1.221,1.357-1.877l2.734,1.213c-1.99,2.58-4.183,4.755-6.576,6.525
		c0.738,0,1.649-0.122,2.735-0.366c-0.153-0.32-0.292-0.557-0.418-0.709l2.255-1.259
		C154.772,105.91,155.517,107.207,156.144,108.535z M155.454,112.335c0,3.053-0.592,5.354-1.774,6.903
		c-1.184,1.549-3.34,2.812-6.472,3.789l-1.983-3.206c2.895-0.519,4.836-1.488,5.824-2.907h-5.595v-5.678h3.319v2.862h3.132
		c0.056-0.137,0.083-0.412,0.083-0.824v-2.724h3.466V112.335z M169.003,108.489l-2.525,1.305c-0.07-0.229-0.251-0.573-0.543-1.03
		c-1.949,0.336-4.746,0.709-8.393,1.122l-0.585-2.381c1.629-0.931,3.076-2.091,4.343-3.48l-4.092,0.526l-0.605-2.495
		c1.712-1.114,3.194-2.893,4.446-5.334l2.777,0.938c-1.142,1.664-2.339,3.007-3.591,4.029c1.6-0.229,2.658-0.389,3.173-0.48
		c0.515-0.671,0.897-1.267,1.148-1.786l2.943,1.03c-2.144,2.931-4.189,5.105-6.138,6.525c1.364-0.152,2.345-0.29,2.943-0.412
		c-0.167-0.274-0.369-0.542-0.605-0.801l2.568-1.213C167.451,105.94,168.363,107.253,169.003,108.489z M167.896,117.098H161.3v5.678
		h-3.549v-12.18h3.549v3.617h3.173v-2.908h3.424V117.098z M174.014,119.822c0,0.977-0.223,1.782-0.668,2.416
		c-0.445,0.633-0.999,1.072-1.66,1.316s-1.813,0.366-3.455,0.366c-0.64,0-1.197-0.038-1.67-0.114l-1.44-4.075
		c0.724,0.061,1.531,0.091,2.422,0.091c1.044,0,1.764-0.038,2.16-0.114c0.397-0.076,0.596-0.473,0.596-1.19V95.966h-12.192v-12.34
		h15.908V119.822z M170.298,88.548v-1.786h-8.393v1.786H170.298z M170.298,92.921v-1.786h-8.393v1.786H170.298z"/>
</g>
</svg>
